<svg width="33" height="32" viewBox="0 0 33 32" fill="none" xmlns="http://www.w3.org/2000/svg">
<g id="globe">
<path id="Icon" d="M30.2038 15.9998C30.2038 23.3636 24.2342 29.3332 16.8704 29.3332M30.2038 15.9998C30.2038 8.63604 24.2342 2.6665 16.8704 2.6665M30.2038 15.9998H3.53711M16.8704 29.3332C9.50665 29.3332 3.53711 23.3636 3.53711 15.9998M16.8704 29.3332C20.2055 25.682 22.1008 20.9438 22.2038 15.9998C22.1008 11.0559 20.2055 6.31764 16.8704 2.6665M16.8704 29.3332C13.5354 25.682 11.6401 20.9438 11.5371 15.9998C11.6401 11.0559 13.5354 6.31764 16.8704 2.6665M3.53711 15.9998C3.53711 8.63604 9.50665 2.6665 16.8704 2.6665" stroke="#1465A8" stroke-width="2.66667" stroke-linecap="round" stroke-linejoin="round"/>
</g>
</svg>
