<svg width="40" height="41" viewBox="0 0 40 41" fill="none" xmlns="http://www.w3.org/2000/svg">
<g id="Lock 1" clip-path="url(#clip0_1174_22318)">
<g id="Group">
<path id="Vector" fill-rule="evenodd" clip-rule="evenodd" d="M9.4668 17.6529H11.9273V12.9429C11.9273 10.7025 12.8173 8.5538 14.4015 6.96957C15.9857 5.38534 18.1344 4.49533 20.3748 4.49533C22.6153 4.49533 24.7639 5.38534 26.3482 6.96957C27.9324 8.5538 28.8224 10.7025 28.8224 12.9429V17.6529H31.3063V12.732C31.2817 9.84785 30.1218 7.08951 28.0779 5.05442C26.0341 3.01933 23.2708 1.87135 20.3865 1.85913C17.4942 1.87146 14.7239 3.02589 12.6787 5.07108C10.6336 7.11626 9.47913 9.88658 9.4668 12.7789V17.6529Z" fill="#455A64"/>
<path id="Vector_2" fill-rule="evenodd" clip-rule="evenodd" d="M20.3875 26.6746C19.0518 26.6746 19.0753 28.6898 20.3875 28.6898C21.6998 28.6898 21.7232 26.6746 20.3875 26.6746Z" fill="#FFAA20"/>
<path id="Vector_3" fill-rule="evenodd" clip-rule="evenodd" d="M20.3881 29.627C20.1327 29.627 19.8798 29.5767 19.6438 29.479C19.4079 29.3812 19.1935 29.238 19.0129 29.0574C18.8322 28.8768 18.689 28.6624 18.5912 28.4264C18.4935 28.1904 18.4432 27.9375 18.4432 27.6821C18.4432 27.4267 18.4935 27.1738 18.5912 26.9378C18.689 26.7018 18.8322 26.4874 19.0129 26.3068C19.1935 26.1262 19.4079 25.983 19.6438 25.8852C19.8798 25.7875 20.1327 25.7372 20.3881 25.7372C20.904 25.7372 21.3987 25.9421 21.7634 26.3068C22.1281 26.6716 22.3331 27.1663 22.3331 27.6821C22.3331 28.1979 22.1281 28.6926 21.7634 29.0574C21.3987 29.4221 20.904 29.627 20.3881 29.627ZM21.3723 33.6106V30.5878C21.3723 30.0254 22.0753 30.2363 22.7549 29.1349C23.0179 28.7128 23.1632 28.2279 23.1758 27.7306C23.1883 27.2333 23.0676 26.7418 22.8261 26.3069C22.5847 25.8719 22.2313 25.5095 21.8026 25.2572C21.3739 25.0049 20.8856 24.8718 20.3881 24.8718C19.8907 24.8718 19.4023 25.0049 18.9736 25.2572C18.5449 25.5095 18.1916 25.8719 17.9501 26.3069C17.7087 26.7418 17.588 27.2333 17.6005 27.7306C17.613 28.2279 17.7584 28.7128 18.0214 29.1349C18.7244 30.2363 19.4274 30.0254 19.4274 30.5878V33.6341H21.3723V33.6106Z" fill="#455A64"/>
<path id="Vector_4" fill-rule="evenodd" clip-rule="evenodd" d="M18.4661 30.8692C15.2793 28.9477 16.6384 23.933 20.3876 23.933C24.1369 23.933 25.496 28.9243 22.3091 30.8457V34.0795C22.3091 34.2038 22.2598 34.323 22.1719 34.4109C22.084 34.4988 21.9648 34.5482 21.8405 34.5482H18.9348C18.8105 34.5482 18.6913 34.4988 18.6034 34.4109C18.5155 34.323 18.4661 34.2038 18.4661 34.0795V30.8692ZM33.9319 18.5903H6.84342C6.39595 18.5903 5.96682 18.7681 5.65041 19.0845C5.33401 19.4009 5.15625 19.83 5.15625 20.2775V38.274C5.15625 39.2113 5.9061 39.9377 6.81999 39.9377H33.9787C34.9161 39.9377 35.6425 39.1879 35.6425 38.274V20.2775C35.6425 19.8341 35.468 19.4084 35.1566 19.0927C34.8453 18.777 34.4221 18.5965 33.9787 18.5903H33.9319Z" fill="#FFAA20"/>
<g id="Group_2">
<path id="Vector_5" d="M6.4448 17.2546H33.5567C34.9861 17.2546 36.1812 18.4263 36.1812 19.8791V37.8756C36.1812 39.3285 35.0095 40.5001 33.5567 40.5001H6.4448C5.74874 40.5001 5.08119 40.2236 4.58901 39.7314C4.09682 39.2392 3.82031 38.5717 3.82031 37.8756V19.8791C3.82031 18.4497 4.99196 17.2546 6.4448 17.2546ZM33.5567 18.192H6.4448C5.99733 18.192 5.5682 18.3697 5.25179 18.6861C4.93538 19.0025 4.75763 19.4317 4.75763 19.8791V37.8756C4.75763 38.8129 5.50748 39.5628 6.4448 39.5628H33.5567C34.494 39.5628 35.2439 38.7895 35.2439 37.8756V19.8791C35.2439 19.4317 35.0661 19.0025 34.7497 18.6861C34.4333 18.3697 34.0042 18.192 33.5567 18.192Z" fill="black"/>
<path id="Vector_6" d="M8.13281 17.7232C8.13281 18.3559 9.07013 18.3559 9.07013 17.7232V12.3571C9.07013 6.35823 13.991 1.43732 19.9899 1.43732C26.0121 1.43732 30.9096 6.35823 30.9096 12.3571V17.7466C30.9096 18.3559 31.8469 18.3559 31.8469 17.7466V12.3571C31.8346 9.21617 30.5814 6.20745 28.3604 3.98649C26.1395 1.76553 23.1308 0.512342 19.9899 0.5C16.849 0.512342 13.8403 1.76553 11.6193 3.98649C9.39834 6.20745 8.14515 9.21617 8.13281 12.3571V17.7232ZM21.9114 30.4941V33.7045C21.9114 33.8287 21.862 33.948 21.7741 34.0358C21.6862 34.1237 21.567 34.1731 21.4427 34.1731H18.5605C18.4362 34.1731 18.317 34.1237 18.2291 34.0358C18.1412 33.948 18.0918 33.8287 18.0918 33.7045V30.4941C14.8815 28.5492 16.2406 23.5814 19.9899 23.5814C23.7391 23.5814 25.1217 28.5726 21.9114 30.4941ZM20.9741 33.2358V30.1895C20.9741 29.6271 21.677 29.838 22.38 28.7601C22.6387 28.3374 22.7801 27.8535 22.7896 27.358C22.7991 26.8626 22.6764 26.3735 22.4342 25.9412C22.1919 25.509 21.8388 25.149 21.4113 24.8985C20.9837 24.648 20.4971 24.516 20.0016 24.516C19.506 24.516 19.0195 24.648 18.5919 24.8985C18.1643 25.149 17.8113 25.509 17.569 25.9412C17.3268 26.3735 17.2041 26.8626 17.2136 27.358C17.2231 27.8535 17.3645 28.3374 17.6231 28.7601C18.3261 29.838 19.0291 29.6271 19.0291 30.1895V33.2358H20.9741Z" fill="black"/>
<path id="Vector_7" d="M19.9886 25.3389C20.5044 25.3389 20.9991 25.5438 21.3639 25.9085C21.7286 26.2733 21.9335 26.768 21.9335 27.2838C21.9335 27.7996 21.7286 28.2943 21.3639 28.6591C20.9991 29.0238 20.5044 29.2287 19.9886 29.2287C19.4728 29.2287 18.9781 29.0238 18.6133 28.6591C18.2486 28.2943 18.0437 27.7996 18.0437 27.2838C18.0437 26.768 18.2486 26.2733 18.6133 25.9085C18.9781 25.5438 19.4728 25.3389 19.9886 25.3389ZM19.9886 26.2762C18.6763 26.2762 18.6763 28.2914 19.9886 28.2914C21.3243 28.2914 21.3243 26.2762 19.9886 26.2762ZM11.5527 17.7232C11.5527 18.3559 12.4901 18.3559 12.4901 17.7232V12.5445C12.4901 10.5526 13.2813 8.64239 14.6898 7.23394C16.0982 5.8255 18.0085 5.03424 20.0003 5.03424C21.9921 5.03424 23.9024 5.8255 25.3109 7.23394C26.7193 8.64239 27.5106 10.5526 27.5106 12.5445V17.7232C27.5106 18.3559 28.4479 18.3559 28.4479 17.7232V12.5445C28.4479 10.3041 27.5579 8.15539 25.9736 6.57116C24.3894 4.98693 22.2407 4.09692 20.0003 4.09692C17.7599 4.09692 15.6112 4.98693 14.027 6.57116C12.4427 8.15539 11.5527 10.3041 11.5527 12.5445V17.7232Z" fill="black"/>
</g>
</g>
</g>
<defs>
<clipPath id="clip0_1174_22318">
<rect width="40" height="40" fill="white" transform="translate(0 0.5)"/>
</clipPath>
</defs>
</svg>
