<svg width="40" height="41" viewBox="0 0 40 41" fill="none" xmlns="http://www.w3.org/2000/svg">
<g id="Lock 1" clip-path="url(#clip0_1174_22398)">
<g id="Group">
<path id="Vector" fill-rule="evenodd" clip-rule="evenodd" d="M9.4668 17.6529H11.9273V12.9429C11.9273 10.7025 12.8173 8.5538 14.4015 6.96957C15.9857 5.38534 18.1344 4.49533 20.3748 4.49533C22.6153 4.49533 24.7639 5.38534 26.3482 6.96957C27.9324 8.5538 28.8224 10.7025 28.8224 12.9429L28.818 12.5H31.3018L31.3063 12.732C31.2817 9.84785 30.1218 7.08951 28.0779 5.05442C26.0341 3.01933 23.2708 1.87135 20.3865 1.85913C17.4942 1.87146 14.7239 3.0259 12.6787 5.07108C10.6336 7.11626 9.47913 9.88658 9.4668 12.7789V17.6529Z" fill="#455A64"/>
<path id="Vector_2" fill-rule="evenodd" clip-rule="evenodd" d="M20.3875 26.6746C19.0518 26.6746 19.0753 28.6898 20.3875 28.6898C21.6998 28.6898 21.7232 26.6746 20.3875 26.6746Z" fill="#FFAA20"/>
<path id="Vector_3" fill-rule="evenodd" clip-rule="evenodd" d="M20.3881 29.6272C20.1327 29.6272 19.8798 29.5769 19.6438 29.4791C19.4079 29.3814 19.1935 29.2381 19.0129 29.0575C18.8322 28.8769 18.689 28.6625 18.5912 28.4265C18.4935 28.1905 18.4432 27.9376 18.4432 27.6822C18.4432 27.4268 18.4935 27.1739 18.5912 26.9379C18.689 26.702 18.8322 26.4876 19.0129 26.3069C19.1935 26.1263 19.4079 25.9831 19.6438 25.8853C19.8798 25.7876 20.1327 25.7373 20.3881 25.7373C20.904 25.7373 21.3987 25.9422 21.7634 26.3069C22.1281 26.6717 22.3331 27.1664 22.3331 27.6822C22.3331 28.1981 22.1281 28.6928 21.7634 29.0575C21.3987 29.4222 20.904 29.6272 20.3881 29.6272ZM21.3723 33.6108V30.5879C21.3723 30.0255 22.0753 30.2364 22.7549 29.1351C23.0179 28.7129 23.1632 28.228 23.1758 27.7307C23.1883 27.2335 23.0676 26.7419 22.8261 26.307C22.5847 25.8721 22.2313 25.5097 21.8026 25.2573C21.3739 25.005 20.8856 24.8719 20.3881 24.8719C19.8907 24.8719 19.4023 25.005 18.9736 25.2573C18.5449 25.5097 18.1916 25.8721 17.9501 26.307C17.7087 26.7419 17.588 27.2335 17.6005 27.7307C17.613 28.228 17.7584 28.7129 18.0214 29.1351C18.7244 30.2364 19.4274 30.0255 19.4274 30.5879V33.6342H21.3723V33.6108Z" fill="#455A64"/>
<path id="Vector_4" fill-rule="evenodd" clip-rule="evenodd" d="M18.4661 30.8691C15.2793 28.9476 16.6384 23.9329 20.3876 23.9329C24.1369 23.9329 25.496 28.9241 22.3091 30.8456V34.0794C22.3091 34.2037 22.2598 34.3229 22.1719 34.4108C22.084 34.4987 21.9648 34.548 21.8405 34.548H18.9348C18.8105 34.548 18.6913 34.4987 18.6034 34.4108C18.5155 34.3229 18.4661 34.2037 18.4661 34.0794V30.8691ZM33.9319 18.5902H6.84342C6.39595 18.5902 5.96682 18.768 5.65041 19.0844C5.33401 19.4008 5.15625 19.8299 5.15625 20.2774V38.2739C5.15625 39.2112 5.9061 39.9376 6.81999 39.9376H33.9787C34.9161 39.9376 35.6425 39.1877 35.6425 38.2739V20.2774C35.6425 19.8339 35.468 19.4083 35.1566 19.0926C34.8453 18.7768 34.4221 18.5964 33.9787 18.5902H33.9319Z" fill="#FFAA20"/>
<g id="Group_2">
<path id="Vector_5" d="M6.4448 17.2545H33.5567C34.9861 17.2545 36.1812 18.4262 36.1812 19.879V37.8755C36.1812 39.3283 35.0095 40.5 33.5567 40.5H6.4448C5.74874 40.5 5.08119 40.2235 4.58901 39.7313C4.09682 39.2391 3.82031 38.5715 3.82031 37.8755V19.879C3.82031 18.4496 4.99196 17.2545 6.4448 17.2545ZM33.5567 18.1918H6.4448C5.99733 18.1918 5.5682 18.3696 5.25179 18.686C4.93538 19.0024 4.75763 19.4315 4.75763 19.879V37.8755C4.75763 38.8128 5.50748 39.5627 6.4448 39.5627H33.5567C34.494 39.5627 35.2439 38.7894 35.2439 37.8755V19.879C35.2439 19.4315 35.0661 19.0024 34.7497 18.686C34.4333 18.3696 34.0042 18.1918 33.5567 18.1918Z" fill="black"/>
<path id="Vector_6" d="M8.13281 17.7232C8.13281 18.3559 9.07013 18.3559 9.07013 17.7232V12.3571C9.07013 6.35823 13.991 1.43732 19.9899 1.43732C26.0121 1.43732 30.9096 6.35823 30.9096 12.3571V12.5C30.9096 13.1093 31.8469 13.1093 31.8469 12.5V12.3571C31.8346 9.21617 30.5814 6.20745 28.3604 3.98649C26.1395 1.76553 23.1308 0.512342 19.9899 0.5C16.849 0.512342 13.8403 1.76553 11.6193 3.98649C9.39834 6.20745 8.14515 9.21617 8.13281 12.3571V17.7232ZM21.9114 30.4941V33.7045C21.9114 33.8287 21.862 33.948 21.7741 34.0358C21.6862 34.1237 21.567 34.1731 21.4427 34.1731H18.5605C18.4362 34.1731 18.317 34.1237 18.2291 34.0358C18.1412 33.948 18.0918 33.8287 18.0918 33.7045V30.4941C14.8815 28.5492 16.2406 23.5814 19.9899 23.5814C23.7391 23.5814 25.1217 28.5726 21.9114 30.4941ZM20.9741 33.2358V30.1895C20.9741 29.6271 21.677 29.838 22.38 28.7601C22.6387 28.3374 22.7801 27.8535 22.7896 27.358C22.7991 26.8626 22.6764 26.3735 22.4342 25.9412C22.1919 25.509 21.8388 25.149 21.4113 24.8985C20.9837 24.648 20.4971 24.516 20.0016 24.516C19.506 24.516 19.0195 24.648 18.5919 24.8985C18.1643 25.149 17.8113 25.509 17.569 25.9412C17.3268 26.3735 17.2041 26.8626 17.2136 27.358C17.2231 27.8535 17.3645 28.3374 17.6231 28.7601C18.3261 29.838 19.0291 29.6271 19.0291 30.1895V33.2358H20.9741Z" fill="black"/>
<path id="Vector_7" d="M19.9886 25.3389C20.5044 25.3389 20.9991 25.5438 21.3639 25.9085C21.7286 26.2733 21.9335 26.768 21.9335 27.2838C21.9335 27.7996 21.7286 28.2943 21.3639 28.6591C20.9991 29.0238 20.5044 29.2287 19.9886 29.2287C19.4728 29.2287 18.9781 29.0238 18.6133 28.6591C18.2486 28.2943 18.0437 27.7996 18.0437 27.2838C18.0437 26.768 18.2486 26.2733 18.6133 25.9085C18.9781 25.5438 19.4728 25.3389 19.9886 25.3389ZM19.9886 26.2762C18.6763 26.2762 18.6763 28.2914 19.9886 28.2914C21.3243 28.2914 21.3243 26.2762 19.9886 26.2762ZM11.5527 17.7232C11.5527 18.3559 12.4901 18.3559 12.4901 17.7232V12.5445C12.4901 10.5526 13.2813 8.64239 14.6898 7.23394C16.0982 5.8255 18.0085 5.03424 20.0003 5.03424C21.9921 5.03424 23.9024 5.8255 25.3109 7.23394C26.7193 8.64239 27.5106 10.5526 27.5106 12.5445V12.5C27.5106 13.1327 28.4479 13.1327 28.4479 12.5V12.5445C28.4479 10.3041 27.5579 8.15539 25.9736 6.57116C24.3894 4.98693 22.2407 4.09692 20.0003 4.09692C17.7599 4.09692 15.6112 4.98693 14.027 6.57116C12.4427 8.15539 11.5527 10.3041 11.5527 12.5445V17.7232Z" fill="black"/>
</g>
</g>
</g>
<defs>
<clipPath id="clip0_1174_22398">
<rect width="40" height="40" fill="white" transform="translate(0 0.5)"/>
</clipPath>
</defs>
</svg>
